# xmcd
#
# Track frame offsets:
# 150
# 18873
# 36908
# 45909
# 62219
# 83734
# 100834
# 126077
# 143725
# 157160
# 171758
# 186192
# 196524
# 211660
# 226024
#
# Disc length: 3157 seconds
#
#
# Revision: 1
# Processed by: cddbd v1.5.1PL0 Copyright (c) Steve Scherf et al.
# Submitted via: FreeRIP 2.941 
#
DISCID=b70c530f
DTITLE=Britt-Synnøve Johansen - Mot himlen i Paris-Piaf på norsk
DYEAR=2002
DGENRE=Cabaret
TTITLE0=Eg elske deg
TTITLE1=Mot himlen i Paris
TTITLE2=Stakkars Jean sin klagesang
TTITLE3=Hymnen te kjærligheten
TTITLE4=Kom her te meg, Milord
TTITLE5=Trekkspillaren
TTITLE6=Tri klokker
TTITLE7=Kjærlighetens ord
TTITLE8=Folkemengden
TTITLE9=Min Gud
TTITLE10=Bravo for klovnen
TTITLE11=Karusellen min e du
TTITLE12=Padam Padam
TTITLE13=Mitt hjerta e på et gatehjørna
TTITLE14=Non, je ne regrette rien
EXTD=
EXTT0=
EXTT1=
EXTT2=
EXTT3=
EXTT4=
EXTT5=
EXTT6=
EXTT7=
EXTT8=
EXTT9=
EXTT10=
EXTT11=
EXTT12=
EXTT13=
EXTT14=
PLAYORDER=
